<?xml version="1.0" standalone="no"?>
<!DOCTYPE svg PUBLIC "-//W3C//DTD SVG 20010904//EN"
 "http://www.w3.org/TR/2001/REC-SVG-20010904/DTD/svg10.dtd">
<svg version="1.0" xmlns="http://www.w3.org/2000/svg"
 width="222.000000pt" height="222.000000pt" viewBox="0 0 222.000000 222.000000"
 preserveAspectRatio="xMidYMid meet">
<metadata>
Created by potrace 1.11, written by Peter Selinger 2001-2013
</metadata>
<g transform="translate(0.000000,222.000000) scale(0.100000,-0.100000)"
fill="#000000" stroke="none">
<path d="M355 2158 c-154 -160 -278 -409 -320 -643 -21 -118 -21 -332 0 -450
80 -448 400 -823 833 -979 251 -90 556 -94 817 -9 172 55 344 155 461 267 56
54 65 66 56 82 -14 26 -450 472 -474 485 -14 8 -27 5 -52 -10 -41 -25 -98 -27
-137 -4 -24 14 -34 15 -62 5 -62 -22 -95 -16 -139 28 -39 38 -44 40 -88 34
-43 -6 -50 -3 -83 26 -31 26 -37 39 -37 70 0 48 -21 70 -66 70 -23 0 -44 9
-66 29 -30 27 -33 35 -34 88 0 53 -4 61 -37 95 -41 40 -47 74 -25 135 10 28 9
38 -5 62 -23 39 -21 96 4 137 15 25 18 38 10 52 -13 24 -459 460 -485 474 -15
8 -27 1 -71 -44z m105 -93 l33 -34 -38 -46 c-33 -41 -36 -49 -26 -71 9 -22 6
-33 -26 -89 -20 -35 -40 -62 -44 -59 -14 8 -40 -9 -54 -37 -19 -35 -19 -68 -1
-75 20 -8 -1 -74 -24 -74 -10 0 -22 -6 -28 -12 -35 -44 -50 -339 -23 -473 91
-455 442 -797 892 -870 296 -48 612 34 840 217 32 26 63 48 67 48 4 0 23 -16
42 -35 40 -41 39 -43 -70 -125 -254 -188 -586 -267 -905 -215 -370 60 -696
299 -869 638 -184 362 -165 819 49 1162 49 80 131 185 144 185 4 0 22 -16 41
-35z m1309 -1350 c50 -53 52 -57 38 -78 -23 -35 -43 -31 -97 19 -50 47 -62 78
-38 102 22 22 45 12 97 -43z m130 -129 c42 -45 -3 -96 -54 -62 -24 16 -35 63
-18 79 14 15 51 6 72 -17z"/>
</g>
</svg>
